Coordinates
version=1
nRows=24
nColumns=38
inDegrees=no

Units are S.I. units (second, meters, Newtons, ...)
If the header above contains a line with 'inDegrees', this indicates whether rotational values are in degrees (yes) or radians (no).

endheader
time	pelvis_tilt	pelvis_list	pelvis_rotation	pelvis_tx	pelvis_ty	pelvis_tz	hip_flexion_r	hip_adduction_r	hip_rotation_r	knee_angle_r	ankle_angle_r	subtalar_angle_r	mtp_angle_r	hip_flexion_l	hip_adduction_l	hip_rotation_l	knee_angle_l	ankle_angle_l	subtalar_angle_l	mtp_angle_l	lumbar_extension	lumbar_bending	lumbar_rotation	arm_flex_r	arm_add_r	arm_rot_r	elbow_flex_r	pro_sup_r	wrist_flex_r	wrist_dev_r	arm_flex_l	arm_add_l	arm_rot_l	elbow_flex_l	pro_sup_l	wrist_flex_l	wrist_dev_l
0	1.89184	1.43408	-0.249498	0.750853	-0.728363	1.00969	0.146399	0.101055	-0.42288	0.354839	0.0375414	0	0	0.320885	-0.220384	0.114402	1.21527	-0.0411155	0	0	-0.270969	0.138421	0.0583734	0.0747739	-0.194941	-0.0112669	0.253771	1.42192	0	0	0.104161	-0.240071	0.453182	0.320835	1.20538	0	0
0.01	1.99597	1.43187	-0.36175	0.753134	-0.720067	1.01172	0.115143	0.105096	-0.414484	0.342609	0.042033	0	0	0.320218	-0.218523	0.106958	1.21231	-0.0405749	0	0	-0.284159	0.133619	0.0673983	0.0748477	-0.194794	-0.00733031	0.256376	1.418	0	0	0.106251	-0.240703	0.456113	0.318774	1.20325	0	0
0.02	1.97778	1.43152	-0.346693	0.754578	-0.713746	1.01186	0.10657	0.111032	-0.404518	0.334249	0.0455908	0	0	0.336547	-0.221364	0.0974583	1.20145	-0.0318322	0	0	-0.283231	0.135263	0.0710187	0.0779418	-0.196842	-0.00402012	0.259108	1.41405	0	0	0.10999	-0.239761	0.458971	0.318825	1.2018	0	0
0.03	2.17813	1.41278	-0.610051	0.764522	-0.709031	1.0173	0.0543049	0.133889	-0.321408	0.315353	0.0305691	0	0	0.284122	-0.252798	0.0266686	1.16712	-0.0291451	0	0	-0.340928	0.112695	0.134947	0.097323	-0.191245	0.00303994	0.259783	1.40907	0	0	0.127329	-0.248265	0.461526	0.324955	1.20198	0	0
0.04	1.98777	1.43877	-0.35848	0.757317	-0.700191	1.01293	0.0881762	0.108116	-0.407365	0.327169	0.0595169	0	0	0.361522	-0.203244	0.100768	1.17076	-0.0170629	0	0	-0.282084	0.128677	0.0673684	0.0820841	-0.197847	0.0173453	0.268427	1.39528	0	0	0.113786	-0.238676	0.445699	0.315939	1.20507	0	0
0.05	2.01774	1.43924	-0.391116	0.758787	-0.693399	1.01375	0.0726933	0.109952	-0.403307	0.319477	0.0654216	0	0	0.368841	-0.199928	0.0954556	1.15255	-0.00874864	0	0	-0.286866	0.126757	0.0678451	0.0861224	-0.19778	0.0214046	0.271769	1.39191	0	0	0.11591	-0.23927	0.445272	0.317259	1.20273	0	0
0.06	2.01863	1.43339	-0.395342	0.759784	-0.68551	1.01346	0.0566057	0.118875	-0.401827	0.310975	0.0723618	0	0	0.374676	-0.20208	0.0950169	1.13399	0.00571648	0	0	-0.286259	0.133979	0.0699994	0.0866483	-0.200583	0.0254258	0.27278	1.38853	0	0	0.113531	-0.237276	0.444742	0.317183	1.19951	0	0
0.07	2.13868	1.43593	-0.517915	0.76191	-0.679068	1.01593	0.0293941	0.114092	-0.394758	0.299806	0.0723789	0	0	0.370892	-0.1901	0.0908968	1.11195	0.0035911	0	0	-0.30519	0.121384	0.0692563	0.0965857	-0.195197	0.0296983	0.27068	1.38282	0	0	0.120184	-0.242079	0.445516	0.317	1.1957	0	0
0.08	2.10787	1.42981	-0.491473	0.762899	-0.671056	1.01525	0.0155249	0.125717	-0.391292	0.288301	0.0777092	0	0	0.377972	-0.196019	0.0874359	1.08934	0.0215289	0	0	-0.300792	0.130525	0.0736702	0.0956298	-0.19875	0.0368183	0.271332	1.37942	0	0	0.117235	-0.240266	0.450449	0.31959	1.18602	0	0
0.09	2.12287	1.43111	-0.507201	0.76395	-0.66439	1.01554	0.00328234	0.126299	-0.389525	0.281627	0.0819755	0	0	0.385018	-0.193279	0.0796458	1.06382	0.0278777	0	0	-0.303331	0.128796	0.0724579	0.100078	-0.198472	0.0430798	0.272194	1.37283	0	0	0.120726	-0.240551	0.452438	0.31843	1.18115	0	0
0.1	2.0932	1.43643	-0.474504	0.763918	-0.658267	1.01489	0.00221822	0.123641	-0.393456	0.280954	0.0891147	0	0	0.4011	-0.190649	0.0671266	1.03666	0.0352796	0	0	-0.298322	0.129351	0.0670434	0.107474	-0.197332	0.0194243	0.266325	1.40466	0	0	0.125185	-0.23613	0.439236	0.310477	1.20149	0	0
0.11	2.14028	1.43429	-0.52462	0.765557	-0.651381	1.01574	-0.0175116	0.12688	-0.387497	0.270649	0.0917253	0	0	0.400443	-0.188142	0.0608108	1.0078	0.0360035	0	0	-0.307682	0.126737	0.0691976	0.112702	-0.194968	0.0161935	0.266189	1.40919	0	0	0.130564	-0.237132	0.437771	0.306181	1.20241	0	0
0.12	2.13837	1.439	-0.515645	0.764756	-0.645428	1.01498	-0.0227612	0.122836	-0.391546	0.268379	0.0998367	0	0	0.414851	-0.180475	0.0570561	0.9961	0.0920688	0	0	-0.30673	0.127265	0.0613607	0.112475	-0.202898	0.0629326	0.278618	1.35141	0	0	0.135032	-0.238721	0.465823	0.30968	1.16487	0	0
0.13	2.19885	1.43154	-0.581582	0.766744	-0.638132	1.01628	-0.0499543	0.130956	-0.382894	0.252353	0.0971047	0	0	0.403419	-0.187818	0.0335198	0.944315	0.0382246	0	0	-0.320552	0.126531	0.0668222	0.116569	-0.200951	0.0695401	0.279384	1.34384	0	0	0.139187	-0.241709	0.470728	0.309575	1.16059	0	0
0.14	2.18772	1.42493	-0.564064	0.766252	-0.631501	1.01663	-0.0700959	0.142747	-0.385445	0.228852	0.0913515	0	0	0.407346	-0.196197	0.0160977	0.909902	0.0443928	0	0	-0.325542	0.137379	0.0631952	0.130317	-0.19553	-0.00559787	0.259069	1.44149	0	0	0.148437	-0.22968	0.427582	0.290663	1.21934	0	0
0.15	2.16654	1.44106	-0.546724	0.766728	-0.625302	1.01474	-0.0535876	0.124166	-0.391624	0.257232	0.115328	0	0	0.424042	-0.183478	-0.00416601	0.880103	0.0476404	0	0	-0.313558	0.124331	0.0611739	0.112616	-0.218636	0.19371	0.30848	1.1859	0	0	0.141199	-0.25314	0.541405	0.332279	1.07054	0	0
0.16	2.19858	1.44032	-0.582712	0.768289	-0.61833	1.01523	-0.069901	0.126592	-0.381317	0.247536	0.114679	0	0	0.421552	-0.182693	-0.0204228	0.845103	0.0448403	0	0	-0.321917	0.119868	0.0679911	0.139998	-0.190017	-0.0207721	0.249416	1.45822	0	0	0.153169	-0.241156	0.472022	0.305044	1.174	0	0
0.17	2.19089	1.44196	-0.57496	0.768419	-0.611839	1.01459	-0.0752934	0.126194	-0.380755	0.247812	0.119849	0	0	0.427267	-0.181176	-0.0374427	0.811909	0.0430264	0	0	-0.32129	0.120174	0.0658053	0.123794	-0.212943	0.169958	0.299197	1.21939	0	0	0.150951	-0.253081	0.534115	0.328211	1.08771	0	0
0.18	2.2044	1.44654	-0.585671	0.76822	-0.60513	1.0141	-0.0829344	0.121929	-0.377795	0.244965	0.123479	0	0	0.427648	-0.176063	-0.0624778	0.771052	0.0422682	0	0	-0.323157	0.117063	0.0638394	0.147256	-0.191508	-0.0169734	0.251413	1.45172	0	0	0.160527	-0.241123	0.478753	0.306241	1.17185	0	0
0.19	2.2418	1.43001	-0.63023	0.768852	-0.597231	1.0159	-0.127077	0.131962	-0.38137	0.204627	0.117971	0	0	0.411454	-0.185595	-0.0748271	0.736372	0.0464626	0	0	-0.341069	0.126793	0.0707558	0.152687	-0.192046	-0.0152834	0.251643	1.44942	0	0	0.162188	-0.240989	0.48052	0.305934	1.17058	0	0
0.2	2.21448	1.4515	-0.594307	0.768168	-0.591289	1.01294	-0.096396	0.117671	-0.377998	0.245246	0.133449	0	0	0.430423	-0.167494	-0.100316	0.69935	0.051174	0	0	-0.3243	0.114112	0.0600015	0.143148	-0.201141	0.0664065	0.272006	1.34932	0	0	0.163819	-0.244808	0.495945	0.311466	1.15179	0	0
0.21	2.21482	1.45763	-0.595306	0.767925	-0.584184	1.01205	-0.0981499	0.11081	-0.380864	0.251496	0.143251	0	0	0.432792	-0.159403	-0.119685	0.662841	0.0522543	0	0	-0.322029	0.109596	0.0591665	0.145794	-0.200767	0.0626915	0.268987	1.35417	0	0	0.165784	-0.244656	0.495478	0.310597	1.15451	0	0
0.22	2.2151	1.46023	-0.6018	0.767267	-0.576636	1.01163	-0.109829	0.097803	-0.396788	0.248421	0.160742	0	0	0.4301	-0.154973	-0.137432	0.625105	0.0549074	0	0	-0.322564	0.10785	0.0610986	0.149977	-0.201087	0.0584652	0.266624	1.35864	0	0	0.165864	-0.243773	0.495318	0.310134	1.15728	0	0
0.23	2.24095	1.46381	-0.625496	0.766812	-0.569244	1.01095	-0.11839	0.0930514	-0.397997	0.249016	0.168125	0	0	0.42728	-0.145938	-0.152586	0.586897	0.0556794	0	0	-0.323892	0.104355	0.0579646	0.152206	-0.200496	0.0535324	0.265574	1.36338	0	0	0.168001	-0.244483	0.496264	0.310367	1.15971	0	0
